<svg xmlns="http://www.w3.org/2000/svg" width="47.312" height="47.312" viewBox="0 0 47.312 47.312">
    <defs>
        <style>
            .cls-1{fill:#db273d}
        </style>
    </defs>
    <g id="Icon_ionic-ios-checkmark-circle-outline" transform="translate(-3.375 -3.375)">
        <path id="Path_7082" d="M34.8 14.4l-2-2.059a.43.43 0 0 0-.318-.136.413.413 0 0 0-.318.136L17 27.568c-.039-.007 2.642 2.739 2.595 2.767-.005 0 15.371-15.763 15.205-15.935z" class="cls-1" transform="translate(1.359 5.453)"/>
        <path id="Path_7084" d="M17 14.4l2-2.059a.43.43 0 0 1 .318-.136.413.413 0 0 1 .318.136L34.8 27.568c.039-.007-2.642 2.739-2.595 2.767C32.2 30.335 16.826 14.572 17 14.4z" class="cls-1" transform="translate(1.359 5.453)"/>
        <path id="Path_7083" d="M27.031 6.559a20.475 20.475 0 0 1 14.478 34.95 20.475 20.475 0 0 1-28.956-28.956 20.336 20.336 0 0 1 14.478-5.994m0-3.184a23.656 23.656 0 1 0 23.656 23.656A23.653 23.653 0 0 0 27.031 3.375z" class="cls-1"/>
    </g>
</svg>
