<svg xmlns="http://www.w3.org/2000/svg" width="47.312" height="47.312" viewBox="0 0 47.312 47.312">
    <defs>
        <style>
            .cls-1{fill:#28a745}
        </style>
    </defs>
    <g id="Icon_ionic-ios-checkmark-circle-outline" transform="translate(-3.375 -3.375)">
        <path id="Path_7082" d="M34.8 14.4l-2-2.059a.43.43 0 0 0-.318-.136.413.413 0 0 0-.318.136L18.282 26.32l-5.05-5.05a.44.44 0 0 0-.637 0l-2.024 2.03a.453.453 0 0 0 0 .648l6.369 6.369a2.014 2.014 0 0 0 1.331.648 2.111 2.111 0 0 0 1.319-.626h.01L34.807 15.05a.486.486 0 0 0-.007-.65z" class="cls-1" transform="translate(4.359 5.453)"/>
        <path id="Path_7083" d="M27.031 6.559a20.475 20.475 0 0 1 14.478 34.95 20.475 20.475 0 0 1-28.956-28.956 20.336 20.336 0 0 1 14.478-5.994m0-3.184a23.656 23.656 0 1 0 23.656 23.656A23.653 23.653 0 0 0 27.031 3.375z" class="cls-1"/>
    </g>
</svg>
